<svg width="169" height="75" viewBox="0 0 169 75" fill="none" xmlns="http://www.w3.org/2000/svg">
<g clip-path="url(#clip0_375_139)">
<g filter="url(#filter0_diiiiii_375_139)">
<rect y="2" width="144" height="55" rx="17" fill="#F3F3F3"/>
</g>
<path d="M46.2352 34.1061C43.8898 34.1061 42.3341 32.2321 42.3341 29.7807C42.3341 27.3529 43.8545 25.4436 46.2352 25.4436C48.168 25.4436 49.5116 26.6339 49.8652 28.6375L48.7102 28.6493C48.4037 27.2704 47.5434 26.41 46.2352 26.41C44.5145 26.41 43.4537 27.8596 43.4537 29.7807C43.4537 31.69 44.5145 33.1396 46.2352 33.1396C47.5434 33.1396 48.4155 32.2911 48.828 30.9593L49.983 30.9711C49.5116 32.8568 48.168 34.1061 46.2352 34.1061ZM55.665 34.165C53.3315 34.165 51.6107 32.4443 51.6107 29.8396C51.6107 27.2468 53.3315 25.5025 55.665 25.5025C57.9986 25.5025 59.7193 27.2114 59.7193 29.8396C59.7193 32.4914 57.9986 34.165 55.665 34.165ZM55.665 33.1986C57.374 33.1986 58.5997 31.9139 58.5997 29.8396C58.5997 27.7889 57.374 26.4689 55.665 26.4689C53.9561 26.4689 52.7422 27.8125 52.7422 29.8396C52.7422 31.8786 53.9561 33.1986 55.665 33.1986ZM61.7934 34V25.6911H63.2784L66.7081 32.845V25.6911H67.7806V34H66.2838L62.8541 26.8461V34H61.7934ZM71.739 34V26.6575H69.2404V25.6911H75.4397V26.6575H72.8115V34H71.739ZM75.0642 34L78.2346 25.6911H79.4014L82.5599 34H81.4167L80.4149 31.3718H77.1974L76.1956 34H75.0642ZM77.5628 30.4054H80.0496L78.8121 27.0464L77.5628 30.4054ZM87.3125 34.1061C84.9672 34.1061 83.4115 32.2321 83.4115 29.7807C83.4115 27.3529 84.9318 25.4436 87.3125 25.4436C89.2454 25.4436 90.589 26.6339 90.9425 28.6375L89.7875 28.6493C89.4811 27.2704 88.6207 26.41 87.3125 26.41C85.5918 26.41 84.5311 27.8596 84.5311 29.7807C84.5311 31.69 85.5918 33.1396 87.3125 33.1396C88.6207 33.1396 89.4929 32.2911 89.9054 30.9593L91.0604 30.9711C90.589 32.8568 89.2454 34.1061 87.3125 34.1061ZM94.5738 34V26.6575H92.0752V25.6911H98.2745V26.6575H95.6463V34H94.5738Z" fill="#757575"/>
</g>
<defs>
<filter id="filter0_diiiiii_375_139" x="-1" y="0" width="170" height="75" filterUnits="userSpaceOnUse" color-interpolation-filters="sRGB">
<feFlood flood-opacity="0" result="BackgroundImageFix"/>
<feColorMatrix in="SourceAlpha" type="matrix" values="0 0 0 0 0 0 0 0 0 0 0 0 0 0 0 0 0 0 127 0" result="hardAlpha"/>
<feOffset dx="15" dy="8"/>
<feGaussianBlur stdDeviation="5"/>
<feComposite in2="hardAlpha" operator="out"/>
<feColorMatrix type="matrix" values="0 0 0 0 0.0528846 0 0 0 0 0.0526304 0 0 0 0 0.0526304 0 0 0 0.4 0"/>
<feBlend mode="normal" in2="BackgroundImageFix" result="effect1_dropShadow_375_139"/>
<feBlend mode="normal" in="SourceGraphic" in2="effect1_dropShadow_375_139" result="shape"/>
<feColorMatrix in="SourceAlpha" type="matrix" values="0 0 0 0 0 0 0 0 0 0 0 0 0 0 0 0 0 0 127 0" result="hardAlpha"/>
<feOffset dx="3" dy="0.75"/>
<feGaussianBlur stdDeviation="0.5"/>
<feComposite in2="hardAlpha" operator="arithmetic" k2="-1" k3="1"/>
<feColorMatrix type="matrix" values="0 0 0 0 1 0 0 0 0 1 0 0 0 0 1 0 0 0 0.7 0"/>
<feBlend mode="normal" in2="shape" result="effect2_innerShadow_375_139"/>
<feColorMatrix in="SourceAlpha" type="matrix" values="0 0 0 0 0 0 0 0 0 0 0 0 0 0 0 0 0 0 127 0" result="hardAlpha"/>
<feOffset dx="1"/>
<feGaussianBlur stdDeviation="0.5"/>
<feComposite in2="hardAlpha" operator="arithmetic" k2="-1" k3="1"/>
<feColorMatrix type="matrix" values="0 0 0 0 0.829327 0 0 0 0 0.829327 0 0 0 0 0.829327 0 0 0 0.6 0"/>
<feBlend mode="normal" in2="effect2_innerShadow_375_139" result="effect3_innerShadow_375_139"/>
<feColorMatrix in="SourceAlpha" type="matrix" values="0 0 0 0 0 0 0 0 0 0 0 0 0 0 0 0 0 0 127 0" result="hardAlpha"/>
<feOffset dx="-1" dy="-1"/>
<feGaussianBlur stdDeviation="0.5"/>
<feComposite in2="hardAlpha" operator="arithmetic" k2="-1" k3="1"/>
<feColorMatrix type="matrix" values="0 0 0 0 0.420673 0 0 0 0 0.412583 0 0 0 0 0.412583 0 0 0 0.4 0"/>
<feBlend mode="normal" in2="effect3_innerShadow_375_139" result="effect4_innerShadow_375_139"/>
<feColorMatrix in="SourceAlpha" type="matrix" values="0 0 0 0 0 0 0 0 0 0 0 0 0 0 0 0 0 0 127 0" result="hardAlpha"/>
<feOffset dx="-1" dy="-1"/>
<feGaussianBlur stdDeviation="1"/>
<feComposite in2="hardAlpha" operator="arithmetic" k2="-1" k3="1"/>
<feColorMatrix type="matrix" values="0 0 0 0 0 0 0 0 0 0 0 0 0 0 0 0 0 0 0.25 0"/>
<feBlend mode="normal" in2="effect4_innerShadow_375_139" result="effect5_innerShadow_375_139"/>
<feColorMatrix in="SourceAlpha" type="matrix" values="0 0 0 0 0 0 0 0 0 0 0 0 0 0 0 0 0 0 127 0" result="hardAlpha"/>
<feOffset dx="-0.1" dy="1"/>
<feGaussianBlur stdDeviation="0.5"/>
<feComposite in2="hardAlpha" operator="arithmetic" k2="-1" k3="1"/>
<feColorMatrix type="matrix" values="0 0 0 0 0.884615 0 0 0 0 0.878236 0 0 0 0 0.878236 0 0 0 1 0"/>
<feBlend mode="normal" in2="effect5_innerShadow_375_139" result="effect6_innerShadow_375_139"/>
<feColorMatrix in="SourceAlpha" type="matrix" values="0 0 0 0 0 0 0 0 0 0 0 0 0 0 0 0 0 0 127 0" result="hardAlpha"/>
<feOffset dy="-5"/>
<feGaussianBlur stdDeviation="0.5"/>
<feComposite in2="hardAlpha" operator="arithmetic" k2="-1" k3="1"/>
<feColorMatrix type="matrix" values="0 0 0 0 1 0 0 0 0 1 0 0 0 0 1 0 0 0 0.25 0"/>
<feBlend mode="normal" in2="effect6_innerShadow_375_139" result="effect7_innerShadow_375_139"/>
</filter>
<clipPath id="clip0_375_139">
<rect width="169" height="75" fill="white"/>
</clipPath>
</defs>
</svg>
