<svg width="169" height="75" viewBox="0 0 169 75" fill="none" xmlns="http://www.w3.org/2000/svg">
<g clip-path="url(#clip0_375_143)">
<g filter="url(#filter0_iiiiii_375_143)">
<rect x="-3" y="2" width="147" height="55" rx="17" fill="#F3F3F3"/>
</g>
<path d="M46.7469 34.1061C44.4015 34.1061 42.8458 32.2321 42.8458 29.7807C42.8458 27.3529 44.3662 25.4436 46.7469 25.4436C48.6797 25.4436 50.0233 26.6339 50.3769 28.6375L49.2219 28.6493C48.9155 27.2704 48.0551 26.41 46.7469 26.41C45.0262 26.41 43.9655 27.8596 43.9655 29.7807C43.9655 31.69 45.0262 33.1396 46.7469 33.1396C48.0551 33.1396 48.9272 32.2911 49.3397 30.9593L50.4947 30.9711C50.0233 32.8568 48.6797 34.1061 46.7469 34.1061ZM56.1767 34.165C53.8432 34.165 52.1225 32.4443 52.1225 29.8396C52.1225 27.2468 53.8432 25.5025 56.1767 25.5025C58.5103 25.5025 60.231 27.2114 60.231 29.8396C60.231 32.4914 58.5103 34.165 56.1767 34.165ZM56.1767 33.1986C57.8857 33.1986 59.1114 31.9139 59.1114 29.8396C59.1114 27.7889 57.8857 26.4689 56.1767 26.4689C54.4678 26.4689 53.2539 27.8125 53.2539 29.8396C53.2539 31.8786 54.4678 33.1986 56.1767 33.1986ZM62.3051 34V25.6911H63.7901L67.2198 32.845V25.6911H68.2923V34H66.7955L63.3658 26.8461V34H62.3051ZM72.2507 34V26.6575H69.7521V25.6911H75.9514V26.6575H73.3232V34H72.2507ZM75.5759 34L78.7463 25.6911H79.9131L83.0717 34H81.9284L80.9267 31.3718H77.7092L76.7074 34H75.5759ZM78.0745 30.4054H80.5613L79.3238 27.0464L78.0745 30.4054ZM87.8242 34.1061C85.4789 34.1061 83.9232 32.2321 83.9232 29.7807C83.9232 27.3529 85.4435 25.4436 87.8242 25.4436C89.7571 25.4436 91.1007 26.6339 91.4542 28.6375L90.2992 28.6493C89.9928 27.2704 89.1325 26.41 87.8242 26.41C86.1035 26.41 85.0428 27.8596 85.0428 29.7807C85.0428 31.69 86.1035 33.1396 87.8242 33.1396C89.1325 33.1396 90.0046 32.2911 90.4171 30.9593L91.5721 30.9711C91.1007 32.8568 89.7571 34.1061 87.8242 34.1061ZM95.0855 34V26.6575H92.587V25.6911H98.7862V26.6575H96.158V34H95.0855Z" fill="#757575"/>
</g>
<defs>
<filter id="filter0_iiiiii_375_143" x="-5" y="0" width="150" height="58" filterUnits="userSpaceOnUse" color-interpolation-filters="sRGB">
<feFlood flood-opacity="0" result="BackgroundImageFix"/>
<feBlend mode="normal" in="SourceGraphic" in2="BackgroundImageFix" result="shape"/>
<feColorMatrix in="SourceAlpha" type="matrix" values="0 0 0 0 0 0 0 0 0 0 0 0 0 0 0 0 0 0 127 0" result="hardAlpha"/>
<feOffset dx="1" dy="0.75"/>
<feGaussianBlur stdDeviation="1.5"/>
<feComposite in2="hardAlpha" operator="arithmetic" k2="-1" k3="1"/>
<feColorMatrix type="matrix" values="0 0 0 0 0.377404 0 0 0 0 0.377404 0 0 0 0 0.377404 0 0 0 0.39 0"/>
<feBlend mode="normal" in2="shape" result="effect1_innerShadow_375_143"/>
<feColorMatrix in="SourceAlpha" type="matrix" values="0 0 0 0 0 0 0 0 0 0 0 0 0 0 0 0 0 0 127 0" result="hardAlpha"/>
<feOffset dx="1" dy="1"/>
<feGaussianBlur stdDeviation="0.5"/>
<feComposite in2="hardAlpha" operator="arithmetic" k2="-1" k3="1"/>
<feColorMatrix type="matrix" values="0 0 0 0 0 0 0 0 0 0 0 0 0 0 0 0 0 0 0.5 0"/>
<feBlend mode="normal" in2="effect1_innerShadow_375_143" result="effect2_innerShadow_375_143"/>
<feColorMatrix in="SourceAlpha" type="matrix" values="0 0 0 0 0 0 0 0 0 0 0 0 0 0 0 0 0 0 127 0" result="hardAlpha"/>
<feOffset dx="-3" dy="-3"/>
<feGaussianBlur stdDeviation="1"/>
<feComposite in2="hardAlpha" operator="arithmetic" k2="-1" k3="1"/>
<feColorMatrix type="matrix" values="0 0 0 0 1 0 0 0 0 1 0 0 0 0 1 0 0 0 1 0"/>
<feBlend mode="normal" in2="effect2_innerShadow_375_143" result="effect3_innerShadow_375_143"/>
<feColorMatrix in="SourceAlpha" type="matrix" values="0 0 0 0 0 0 0 0 0 0 0 0 0 0 0 0 0 0 127 0" result="hardAlpha"/>
<feOffset dy="1"/>
<feGaussianBlur stdDeviation="0.5"/>
<feComposite in2="hardAlpha" operator="arithmetic" k2="-1" k3="1"/>
<feColorMatrix type="matrix" values="0 0 0 0 0.865385 0 0 0 0 0.865385 0 0 0 0 0.865385 0 0 0 1 0"/>
<feBlend mode="normal" in2="effect3_innerShadow_375_143" result="effect4_innerShadow_375_143"/>
<feColorMatrix in="SourceAlpha" type="matrix" values="0 0 0 0 0 0 0 0 0 0 0 0 0 0 0 0 0 0 127 0" result="hardAlpha"/>
<feOffset dy="-5"/>
<feGaussianBlur stdDeviation="0.5"/>
<feComposite in2="hardAlpha" operator="arithmetic" k2="-1" k3="1"/>
<feColorMatrix type="matrix" values="0 0 0 0 1 0 0 0 0 1 0 0 0 0 1 0 0 0 0.25 0"/>
<feBlend mode="normal" in2="effect4_innerShadow_375_143" result="effect5_innerShadow_375_143"/>
<feColorMatrix in="SourceAlpha" type="matrix" values="0 0 0 0 0 0 0 0 0 0 0 0 0 0 0 0 0 0 127 0" result="hardAlpha"/>
<feOffset dy="-1"/>
<feGaussianBlur stdDeviation="0.5"/>
<feComposite in2="hardAlpha" operator="arithmetic" k2="-1" k3="1"/>
<feColorMatrix type="matrix" values="0 0 0 0 0 0 0 0 0 0 0 0 0 0 0 0 0 0 0.19 0"/>
<feBlend mode="normal" in2="effect5_innerShadow_375_143" result="effect6_innerShadow_375_143"/>
</filter>
<clipPath id="clip0_375_143">
<rect width="169" height="75" fill="white"/>
</clipPath>
</defs>
</svg>
