<svg width="169" height="75" viewBox="0 0 169 75" fill="none" xmlns="http://www.w3.org/2000/svg">
<g filter="url(#filter0_diiiiii_120_5247)">
<rect y="2" width="144" height="55" rx="17" fill="#F3F3F3"/>
</g>
<path d="M49.4102 33.1414C48.6952 33.1414 48.0627 32.9725 47.5127 32.6346C46.9627 32.2889 46.5345 31.8018 46.2281 31.1732C45.9216 30.5368 45.7684 29.7825 45.7684 28.9104C45.7684 28.0696 45.9216 27.3271 46.2281 26.6829C46.5423 26.0307 46.9823 25.5239 47.5481 25.1625C48.1216 24.7932 48.7895 24.6086 49.5516 24.6086C49.9445 24.6086 50.302 24.6479 50.6241 24.7264C50.9463 24.7971 51.2488 24.8993 51.5316 25.0329L51.1898 25.9757C50.9463 25.8579 50.6948 25.7636 50.4356 25.6929C50.1841 25.6221 49.8856 25.5868 49.5398 25.5868C49.037 25.5868 48.5852 25.7164 48.1845 25.9757C47.7916 26.235 47.4813 26.6082 47.2534 27.0954C47.0256 27.5825 46.9116 28.1718 46.9116 28.8632C46.9116 29.5232 47.0216 30.1007 47.2416 30.5957C47.4695 31.0907 47.7798 31.4757 48.1727 31.7507C48.5734 32.0257 49.0291 32.1632 49.5398 32.1632C49.9248 32.1632 50.2588 32.1161 50.5416 32.0218C50.8245 31.9275 51.0995 31.8057 51.3666 31.6564L51.7084 32.5875C51.4177 32.7446 51.0838 32.8782 50.7066 32.9882C50.3373 33.0904 49.9052 33.1414 49.4102 33.1414ZM56.2411 33.1414C55.6283 33.1414 55.0822 33.0314 54.6029 32.8114C54.1236 32.5836 53.7151 32.2771 53.3772 31.8921C53.0472 31.4993 52.7918 31.0436 52.6111 30.525C52.4383 30.0064 52.3518 29.4525 52.3518 28.8632C52.3518 28.0539 52.5051 27.3311 52.8115 26.6946C53.1258 26.0504 53.5736 25.5436 54.1551 25.1743C54.7365 24.7971 55.4318 24.6086 56.2411 24.6086C56.8461 24.6086 57.3883 24.7186 57.8676 24.9386C58.3547 25.1586 58.7672 25.465 59.1051 25.8579C59.4429 26.2507 59.6983 26.7025 59.8711 27.2132C60.0518 27.7239 60.1422 28.2739 60.1422 28.8632C60.1422 29.4525 60.0518 30.0064 59.8711 30.525C59.6983 31.0436 59.4429 31.4993 59.1051 31.8921C58.7672 32.2771 58.3586 32.5836 57.8793 32.8114C57.4001 33.0314 56.854 33.1414 56.2411 33.1414ZM56.2411 32.175C56.8461 32.175 57.3529 32.0296 57.7615 31.7389C58.1701 31.4482 58.4765 31.0554 58.6808 30.5604C58.8929 30.0575 58.999 29.4918 58.999 28.8632C58.999 28.4389 58.9361 28.0304 58.8104 27.6375C58.6847 27.2446 58.504 26.895 58.2683 26.5886C58.0326 26.2743 57.7418 26.0268 57.3961 25.8461C57.0583 25.6654 56.6733 25.575 56.2411 25.575C55.6676 25.575 55.1726 25.7204 54.7561 26.0111C54.3476 26.3018 54.0333 26.6946 53.8133 27.1896C53.6011 27.6846 53.4951 28.2425 53.4951 28.8632C53.4951 29.2875 53.554 29.7 53.6718 30.1007C53.7976 30.4936 53.9783 30.8471 54.214 31.1614C54.4497 31.4757 54.7365 31.7232 55.0743 31.9039C55.4201 32.0846 55.809 32.175 56.2411 32.175ZM61.7892 33V24.75H63.2742L66.9159 31.6093V24.75H67.9767V33H66.5152L62.8499 26.1879V33H61.7892ZM71.6901 33V25.74H69.1562V24.75H75.3437V25.74H72.8097V33H71.6901ZM81.4882 33.1179L80.5689 30.7607H76.7503L75.831 33.0943L74.8764 32.7054L78.1057 24.75H79.3314L82.5135 32.7054L81.4882 33.1179ZM77.1039 29.8179H80.2035L78.6596 25.8579L77.1039 29.8179ZM86.6319 33.1414C85.9169 33.1414 85.2844 32.9725 84.7344 32.6346C84.1844 32.2889 83.7562 31.8018 83.4497 31.1732C83.1433 30.5368 82.9901 29.7825 82.9901 28.9104C82.9901 28.0696 83.1433 27.3271 83.4497 26.6829C83.764 26.0307 84.204 25.5239 84.7697 25.1625C85.3433 24.7932 86.0112 24.6086 86.7733 24.6086C87.1662 24.6086 87.5237 24.6479 87.8458 24.7264C88.168 24.7971 88.4705 24.8993 88.7533 25.0329L88.4115 25.9757C88.168 25.8579 87.9165 25.7636 87.6572 25.6929C87.4058 25.6221 87.1072 25.5868 86.7615 25.5868C86.2587 25.5868 85.8069 25.7164 85.4062 25.9757C85.0133 26.235 84.703 26.6082 84.4751 27.0954C84.2472 27.5825 84.1333 28.1718 84.1333 28.8632C84.1333 29.5232 84.2433 30.1007 84.4633 30.5957C84.6912 31.0907 85.0015 31.4757 85.3944 31.7507C85.7951 32.0257 86.2508 32.1632 86.7615 32.1632C87.1465 32.1632 87.4805 32.1161 87.7633 32.0218C88.0462 31.9275 88.3212 31.8057 88.5883 31.6564L88.9301 32.5875C88.6394 32.7446 88.3055 32.8782 87.9283 32.9882C87.559 33.0904 87.1269 33.1414 86.6319 33.1414ZM92.0504 33V25.74H89.5164V24.75H95.7039V25.74H93.17V33H92.0504Z" fill="#757575"/>
<defs>
<filter id="filter0_diiiiii_120_5247" x="-1" y="0" width="170" height="75" filterUnits="userSpaceOnUse" color-interpolation-filters="sRGB">
<feFlood flood-opacity="0" result="BackgroundImageFix"/>
<feColorMatrix in="SourceAlpha" type="matrix" values="0 0 0 0 0 0 0 0 0 0 0 0 0 0 0 0 0 0 127 0" result="hardAlpha"/>
<feOffset dx="15" dy="8"/>
<feGaussianBlur stdDeviation="5"/>
<feComposite in2="hardAlpha" operator="out"/>
<feColorMatrix type="matrix" values="0 0 0 0 0.0528846 0 0 0 0 0.0526304 0 0 0 0 0.0526304 0 0 0 0.4 0"/>
<feBlend mode="normal" in2="BackgroundImageFix" result="effect1_dropShadow_120_5247"/>
<feBlend mode="normal" in="SourceGraphic" in2="effect1_dropShadow_120_5247" result="shape"/>
<feColorMatrix in="SourceAlpha" type="matrix" values="0 0 0 0 0 0 0 0 0 0 0 0 0 0 0 0 0 0 127 0" result="hardAlpha"/>
<feOffset dx="3" dy="0.75"/>
<feGaussianBlur stdDeviation="0.5"/>
<feComposite in2="hardAlpha" operator="arithmetic" k2="-1" k3="1"/>
<feColorMatrix type="matrix" values="0 0 0 0 1 0 0 0 0 1 0 0 0 0 1 0 0 0 0.7 0"/>
<feBlend mode="normal" in2="shape" result="effect2_innerShadow_120_5247"/>
<feColorMatrix in="SourceAlpha" type="matrix" values="0 0 0 0 0 0 0 0 0 0 0 0 0 0 0 0 0 0 127 0" result="hardAlpha"/>
<feOffset dx="1"/>
<feGaussianBlur stdDeviation="0.5"/>
<feComposite in2="hardAlpha" operator="arithmetic" k2="-1" k3="1"/>
<feColorMatrix type="matrix" values="0 0 0 0 0.829327 0 0 0 0 0.829327 0 0 0 0 0.829327 0 0 0 0.6 0"/>
<feBlend mode="normal" in2="effect2_innerShadow_120_5247" result="effect3_innerShadow_120_5247"/>
<feColorMatrix in="SourceAlpha" type="matrix" values="0 0 0 0 0 0 0 0 0 0 0 0 0 0 0 0 0 0 127 0" result="hardAlpha"/>
<feOffset dx="-1" dy="-1"/>
<feGaussianBlur stdDeviation="0.5"/>
<feComposite in2="hardAlpha" operator="arithmetic" k2="-1" k3="1"/>
<feColorMatrix type="matrix" values="0 0 0 0 0.420673 0 0 0 0 0.412583 0 0 0 0 0.412583 0 0 0 0.4 0"/>
<feBlend mode="normal" in2="effect3_innerShadow_120_5247" result="effect4_innerShadow_120_5247"/>
<feColorMatrix in="SourceAlpha" type="matrix" values="0 0 0 0 0 0 0 0 0 0 0 0 0 0 0 0 0 0 127 0" result="hardAlpha"/>
<feOffset dx="-1" dy="-1"/>
<feGaussianBlur stdDeviation="1"/>
<feComposite in2="hardAlpha" operator="arithmetic" k2="-1" k3="1"/>
<feColorMatrix type="matrix" values="0 0 0 0 0 0 0 0 0 0 0 0 0 0 0 0 0 0 0.25 0"/>
<feBlend mode="normal" in2="effect4_innerShadow_120_5247" result="effect5_innerShadow_120_5247"/>
<feColorMatrix in="SourceAlpha" type="matrix" values="0 0 0 0 0 0 0 0 0 0 0 0 0 0 0 0 0 0 127 0" result="hardAlpha"/>
<feOffset dx="-0.1" dy="1"/>
<feGaussianBlur stdDeviation="0.5"/>
<feComposite in2="hardAlpha" operator="arithmetic" k2="-1" k3="1"/>
<feColorMatrix type="matrix" values="0 0 0 0 0.884615 0 0 0 0 0.878236 0 0 0 0 0.878236 0 0 0 1 0"/>
<feBlend mode="normal" in2="effect5_innerShadow_120_5247" result="effect6_innerShadow_120_5247"/>
<feColorMatrix in="SourceAlpha" type="matrix" values="0 0 0 0 0 0 0 0 0 0 0 0 0 0 0 0 0 0 127 0" result="hardAlpha"/>
<feOffset dy="-5"/>
<feGaussianBlur stdDeviation="0.5"/>
<feComposite in2="hardAlpha" operator="arithmetic" k2="-1" k3="1"/>
<feColorMatrix type="matrix" values="0 0 0 0 1 0 0 0 0 1 0 0 0 0 1 0 0 0 0.25 0"/>
<feBlend mode="normal" in2="effect6_innerShadow_120_5247" result="effect7_innerShadow_120_5247"/>
</filter>
</defs>
</svg>
