<svg width="38" height="65" viewBox="0 0 38 65" fill="none" xmlns="http://www.w3.org/2000/svg">
<path d="M20.9976 64.7672H17.0015V39.1529H20.9976V64.7672ZM15.646 56.8472H11.6509V0.767151H15.646V56.8472ZM26.3491 56.8472H22.353V0.767151H26.3491V56.8472ZM10.2954 47.7144H6.29932V0.767151H10.2954V47.7144ZM31.6997 47.7144H27.7046V25.3111H31.6997V47.7144ZM4.94385 39.5093H0.94873V0.767151H4.94385V39.5093ZM37.0513 39.5093H33.0552V25.3111H37.0513V39.5093ZM37.0513 10.6754L34.0337 13.0494H37.0513V23.8336H27.7046V14.3384H31.6997V19.8384H33.0552V13.0494H27.7046V9.05426H33.0552V4.76227H31.6997V7.68219H27.7046V0.767151H37.0513V10.6754Z" fill="#02021D"/>
</svg>
