<svg width="207" height="58" viewBox="0 0 207 58" fill="none" xmlns="http://www.w3.org/2000/svg">
<g filter="url(#filter0_iiiiii_392_254)">
<rect width="188" height="42" rx="17" fill="#F3F3F3"/>
</g>
<path d="M54.6699 25.5478V17.3762H57.9502C59.6308 17.3762 60.5465 18.4773 60.5465 19.8219C60.5465 21.12 59.7583 22.256 57.9502 22.256H55.7131V25.5478H54.6699ZM55.7131 21.3287H57.9965C58.9702 21.3287 59.399 20.6332 59.399 19.8219C59.399 18.9757 58.8195 18.3266 57.9965 18.3266H55.7131V21.3287ZM62.5142 25.5478V17.3762H65.7712C67.6026 17.3762 68.5414 18.2919 68.5414 19.6364C68.5414 20.7723 67.7417 21.4678 66.7912 21.6764C67.8692 21.6764 68.3444 22.3139 68.3444 23.1253V25.5478H67.2896V23.1948C67.2896 22.3487 66.8028 22.1748 65.9798 22.1748H63.5689V25.5478H62.5142ZM63.5689 21.236H65.806C66.7101 21.236 67.3939 20.7375 67.3939 19.6944C67.3939 18.8482 66.7217 18.3266 65.7712 18.3266H63.5689V21.236ZM74.2809 25.71C71.9859 25.71 70.2937 24.0178 70.2937 21.4562C70.2937 18.9062 71.9859 17.1907 74.2809 17.1907C76.5759 17.1907 78.2682 18.8714 78.2682 21.4562C78.2682 24.0641 76.5759 25.71 74.2809 25.71ZM74.2809 24.7596C75.9616 24.7596 77.1671 23.4962 77.1671 21.4562C77.1671 19.4394 75.9616 18.1412 74.2809 18.1412C72.6002 18.1412 71.4064 19.4625 71.4064 21.4562C71.4064 23.4614 72.6002 24.7596 74.2809 24.7596ZM82.1394 25.71C80.5514 25.71 79.8444 24.7248 79.8444 23.0557H80.9223C80.9223 24.0873 81.2932 24.7596 82.1626 24.7596C83.2057 24.7596 83.4376 24.0873 83.4376 23.3919V17.3762H84.4923V23.3919C84.4923 24.7132 83.878 25.71 82.1394 25.71ZM86.8053 25.5478V17.3762H92.2762V18.3266H87.86V20.9925H92.0444V21.9314H87.86V24.5973H92.2762V25.5478H86.8053ZM97.7988 25.6521C95.4922 25.6521 93.9622 23.8091 93.9622 21.3982C93.9622 19.0105 95.4574 17.1328 97.7988 17.1328C99.6997 17.1328 101.022 18.3035 101.369 20.2739L100.233 20.2855C99.9315 18.9294 99.0854 18.0832 97.7988 18.0832C96.1065 18.0832 95.0633 19.5089 95.0633 21.3982C95.0633 23.276 96.1065 24.7016 97.7988 24.7016C99.0854 24.7016 99.9431 23.8671 100.349 22.5573L101.485 22.5689C101.022 24.4235 99.6997 25.6521 97.7988 25.6521ZM104.941 25.5478V18.3266H102.483V17.3762H108.58V18.3266H105.995V25.5478H104.941ZM112.676 25.71C111.1 25.6869 109.651 24.8755 109.546 22.7312H110.694C110.729 24.0989 111.621 24.7016 112.711 24.7596C114.125 24.8407 114.785 24.1685 114.785 23.3919C114.785 22.453 113.742 22.2212 112.653 21.8966C111.447 21.5373 110.172 21.0505 110.172 19.3466C110.172 18.0369 111.239 17.1907 112.989 17.1907C114.867 17.1907 115.991 18.1991 116.118 19.7987H114.971C114.89 18.6975 114.102 18.1412 112.989 18.1412C111.841 18.1412 111.285 18.686 111.285 19.3698C111.285 20.3435 112.177 20.6216 113.174 20.8998C114.449 21.2475 115.898 21.5953 115.898 23.415C115.898 24.6785 114.82 25.7448 112.676 25.71ZM120.888 25.5478V17.3762H121.943V24.5973H126.266V25.5478H120.888ZM128.155 25.5478V17.3762H129.21V25.5478H128.155ZM134.25 25.71C132.674 25.6869 131.225 24.8755 131.121 22.7312H132.268C132.303 24.0989 133.196 24.7016 134.285 24.7596C135.699 24.8407 136.36 24.1685 136.36 23.3919C136.36 22.453 135.317 22.2212 134.227 21.8966C133.022 21.5373 131.747 21.0505 131.747 19.3466C131.747 18.0369 132.813 17.1907 134.563 17.1907C136.441 17.1907 137.565 18.1991 137.693 19.7987H136.545C136.464 18.6975 135.676 18.1412 134.563 18.1412C133.416 18.1412 132.859 18.686 132.859 19.3698C132.859 20.3435 133.752 20.6216 134.749 20.8998C136.024 21.2475 137.473 21.5953 137.473 23.415C137.473 24.6785 136.395 25.7448 134.25 25.71ZM141.185 25.5478V18.3266H138.728V17.3762H144.824V18.3266H142.24V25.5478H141.185Z" fill="#757575"/>
<path d="M33.6051 20.8765C33.3868 21.0947 33.3868 21.4486 33.6051 21.6668L37.1616 25.2233C37.3798 25.4416 37.7337 25.4416 37.9519 25.2233C38.1702 25.0051 38.1702 24.6512 37.9519 24.433L34.7906 21.2716L37.9519 18.1103C38.1702 17.892 38.1702 17.5382 37.9519 17.3199C37.7337 17.1017 37.3798 17.1017 37.1616 17.3199L33.6051 20.8765ZM41.4966 21.2716V20.7128H34.0002V21.2716V21.8305H41.4966V21.2716Z" fill="#757575"/>
<defs>
<filter id="filter0_iiiiii_392_254" x="-2" y="-2" width="191" height="45" filterUnits="userSpaceOnUse" color-interpolation-filters="sRGB">
<feFlood flood-opacity="0" result="BackgroundImageFix"/>
<feBlend mode="normal" in="SourceGraphic" in2="BackgroundImageFix" result="shape"/>
<feColorMatrix in="SourceAlpha" type="matrix" values="0 0 0 0 0 0 0 0 0 0 0 0 0 0 0 0 0 0 127 0" result="hardAlpha"/>
<feOffset dx="1" dy="0.75"/>
<feGaussianBlur stdDeviation="1.5"/>
<feComposite in2="hardAlpha" operator="arithmetic" k2="-1" k3="1"/>
<feColorMatrix type="matrix" values="0 0 0 0 0.377404 0 0 0 0 0.377404 0 0 0 0 0.377404 0 0 0 0.39 0"/>
<feBlend mode="normal" in2="shape" result="effect1_innerShadow_392_254"/>
<feColorMatrix in="SourceAlpha" type="matrix" values="0 0 0 0 0 0 0 0 0 0 0 0 0 0 0 0 0 0 127 0" result="hardAlpha"/>
<feOffset dx="1" dy="1"/>
<feGaussianBlur stdDeviation="0.5"/>
<feComposite in2="hardAlpha" operator="arithmetic" k2="-1" k3="1"/>
<feColorMatrix type="matrix" values="0 0 0 0 0 0 0 0 0 0 0 0 0 0 0 0 0 0 0.5 0"/>
<feBlend mode="normal" in2="effect1_innerShadow_392_254" result="effect2_innerShadow_392_254"/>
<feColorMatrix in="SourceAlpha" type="matrix" values="0 0 0 0 0 0 0 0 0 0 0 0 0 0 0 0 0 0 127 0" result="hardAlpha"/>
<feOffset dx="-3" dy="-3"/>
<feGaussianBlur stdDeviation="1"/>
<feComposite in2="hardAlpha" operator="arithmetic" k2="-1" k3="1"/>
<feColorMatrix type="matrix" values="0 0 0 0 1 0 0 0 0 1 0 0 0 0 1 0 0 0 1 0"/>
<feBlend mode="normal" in2="effect2_innerShadow_392_254" result="effect3_innerShadow_392_254"/>
<feColorMatrix in="SourceAlpha" type="matrix" values="0 0 0 0 0 0 0 0 0 0 0 0 0 0 0 0 0 0 127 0" result="hardAlpha"/>
<feOffset dy="1"/>
<feGaussianBlur stdDeviation="0.5"/>
<feComposite in2="hardAlpha" operator="arithmetic" k2="-1" k3="1"/>
<feColorMatrix type="matrix" values="0 0 0 0 0.865385 0 0 0 0 0.865385 0 0 0 0 0.865385 0 0 0 1 0"/>
<feBlend mode="normal" in2="effect3_innerShadow_392_254" result="effect4_innerShadow_392_254"/>
<feColorMatrix in="SourceAlpha" type="matrix" values="0 0 0 0 0 0 0 0 0 0 0 0 0 0 0 0 0 0 127 0" result="hardAlpha"/>
<feOffset dy="-5"/>
<feGaussianBlur stdDeviation="0.5"/>
<feComposite in2="hardAlpha" operator="arithmetic" k2="-1" k3="1"/>
<feColorMatrix type="matrix" values="0 0 0 0 1 0 0 0 0 1 0 0 0 0 1 0 0 0 0.25 0"/>
<feBlend mode="normal" in2="effect4_innerShadow_392_254" result="effect5_innerShadow_392_254"/>
<feColorMatrix in="SourceAlpha" type="matrix" values="0 0 0 0 0 0 0 0 0 0 0 0 0 0 0 0 0 0 127 0" result="hardAlpha"/>
<feOffset dy="-1"/>
<feGaussianBlur stdDeviation="0.5"/>
<feComposite in2="hardAlpha" operator="arithmetic" k2="-1" k3="1"/>
<feColorMatrix type="matrix" values="0 0 0 0 0 0 0 0 0 0 0 0 0 0 0 0 0 0 0.19 0"/>
<feBlend mode="normal" in2="effect5_innerShadow_392_254" result="effect6_innerShadow_392_254"/>
</filter>
</defs>
</svg>
