<svg width="207" height="58" viewBox="0 0 207 58" fill="none" xmlns="http://www.w3.org/2000/svg">
<g filter="url(#filter0_diiiiii_389_237)">
<rect y="1.54688" width="187" height="42.5" rx="13.1364" fill="#F3F3F3"/>
</g>
<path d="M54.6704 27.5469V19.3753H57.9507C59.6313 19.3753 60.547 20.4764 60.547 21.821C60.547 23.1191 59.7588 24.2551 57.9507 24.2551H55.7136V27.5469H54.6704ZM55.7136 23.3278H57.997C58.9707 23.3278 59.3995 22.6323 59.3995 21.821C59.3995 20.9748 58.82 20.3257 57.997 20.3257H55.7136V23.3278ZM62.5147 27.5469V19.3753H65.7717C67.6031 19.3753 68.5419 20.291 68.5419 21.6355C68.5419 22.7714 67.7422 23.4669 66.7917 23.6755C67.8697 23.6755 68.3449 24.313 68.3449 25.1244V27.5469H67.2901V25.1939C67.2901 24.3478 66.8033 24.1739 65.9803 24.1739H63.5694V27.5469H62.5147ZM63.5694 23.2351H65.8065C66.7106 23.2351 67.3944 22.7366 67.3944 21.6935C67.3944 20.8473 66.7222 20.3257 65.7717 20.3257H63.5694V23.2351ZM74.2814 27.7091C71.9864 27.7091 70.2942 26.0169 70.2942 23.4553C70.2942 20.9053 71.9864 19.1898 74.2814 19.1898C76.5764 19.1898 78.2687 20.8705 78.2687 23.4553C78.2687 26.0632 76.5764 27.7091 74.2814 27.7091ZM74.2814 26.7587C75.9621 26.7587 77.1676 25.4953 77.1676 23.4553C77.1676 21.4385 75.9621 20.1403 74.2814 20.1403C72.6007 20.1403 71.4069 21.4616 71.4069 23.4553C71.4069 25.4605 72.6007 26.7587 74.2814 26.7587ZM82.1399 27.7091C80.5519 27.7091 79.8449 26.7239 79.8449 25.0548H80.9228C80.9228 26.0864 81.2937 26.7587 82.1631 26.7587C83.2062 26.7587 83.4381 26.0864 83.4381 25.391V19.3753H84.4928V25.391C84.4928 26.7123 83.8785 27.7091 82.1399 27.7091ZM86.8058 27.5469V19.3753H92.2767V20.3257H87.8605V22.9916H92.0449V23.9305H87.8605V26.5964H92.2767V27.5469H86.8058ZM97.7993 27.6512C95.4927 27.6512 93.9627 25.8082 93.9627 23.3973C93.9627 21.0096 95.4579 19.1319 97.7993 19.1319C99.7002 19.1319 101.022 20.3026 101.369 22.273L100.233 22.2846C99.932 20.9285 99.0859 20.0823 97.7993 20.0823C96.107 20.0823 95.0638 21.508 95.0638 23.3973C95.0638 25.2751 96.107 26.7007 97.7993 26.7007C99.0859 26.7007 99.9436 25.8662 100.349 24.5564L101.485 24.568C101.022 26.4226 99.7002 27.6512 97.7993 27.6512ZM104.941 27.5469V20.3257H102.483V19.3753H108.58V20.3257H105.995V27.5469H104.941ZM112.676 27.7091C111.1 27.686 109.651 26.8746 109.546 24.7303H110.694C110.729 26.098 111.621 26.7007 112.711 26.7587C114.125 26.8398 114.785 26.1676 114.785 25.391C114.785 24.4521 113.742 24.2203 112.653 23.8957C111.447 23.5364 110.172 23.0496 110.172 21.3457C110.172 20.036 111.239 19.1898 112.989 19.1898C114.867 19.1898 115.991 20.1982 116.118 21.7978H114.971C114.89 20.6966 114.102 20.1403 112.989 20.1403C111.841 20.1403 111.285 20.6851 111.285 21.3689C111.285 22.3426 112.177 22.6207 113.174 22.8989C114.449 23.2466 115.898 23.5944 115.898 25.4141C115.898 26.6776 114.82 27.7439 112.676 27.7091ZM120.888 27.5469V19.3753H121.943V26.5964H126.266V27.5469H120.888ZM128.155 27.5469V19.3753H129.21V27.5469H128.155ZM134.25 27.7091C132.674 27.686 131.225 26.8746 131.121 24.7303H132.268C132.303 26.098 133.196 26.7007 134.285 26.7587C135.699 26.8398 136.36 26.1676 136.36 25.391C136.36 24.4521 135.317 24.2203 134.227 23.8957C133.022 23.5364 131.747 23.0496 131.747 21.3457C131.747 20.036 132.813 19.1898 134.563 19.1898C136.441 19.1898 137.565 20.1982 137.693 21.7978H136.545C136.464 20.6966 135.676 20.1403 134.563 20.1403C133.416 20.1403 132.859 20.6851 132.859 21.3689C132.859 22.3426 133.752 22.6207 134.749 22.8989C136.024 23.2466 137.473 23.5944 137.473 25.4141C137.473 26.6776 136.395 27.7439 134.25 27.7091ZM141.185 27.5469V20.3257H138.728V19.3753H144.824V20.3257H142.24V27.5469H141.185Z" fill="#757575"/>
<path d="M33.6046 22.8783C33.3863 23.0965 33.3863 23.4504 33.6046 23.6686L37.1611 27.2251C37.3793 27.4434 37.7332 27.4434 37.9514 27.2251C38.1697 27.0069 38.1697 26.653 37.9514 26.4348L34.7901 23.2734L37.9514 20.1121C38.1697 19.8938 38.1697 19.54 37.9514 19.3217C37.7332 19.1035 37.3793 19.1035 37.1611 19.3217L33.6046 22.8783ZM41.4961 23.2734V22.7146H33.9997V23.2734V23.8323H41.4961V23.2734Z" fill="#757575"/>
<defs>
<filter id="filter0_diiiiii_389_237" x="-0.772727" y="0.0014205" width="207.091" height="57.9545" filterUnits="userSpaceOnUse" color-interpolation-filters="sRGB">
<feFlood flood-opacity="0" result="BackgroundImageFix"/>
<feColorMatrix in="SourceAlpha" type="matrix" values="0 0 0 0 0 0 0 0 0 0 0 0 0 0 0 0 0 0 127 0" result="hardAlpha"/>
<feOffset dx="11.5909" dy="6.18182"/>
<feGaussianBlur stdDeviation="3.86364"/>
<feComposite in2="hardAlpha" operator="out"/>
<feColorMatrix type="matrix" values="0 0 0 0 0.0528846 0 0 0 0 0.0526304 0 0 0 0 0.0526304 0 0 0 0.4 0"/>
<feBlend mode="normal" in2="BackgroundImageFix" result="effect1_dropShadow_389_237"/>
<feBlend mode="normal" in="SourceGraphic" in2="effect1_dropShadow_389_237" result="shape"/>
<feColorMatrix in="SourceAlpha" type="matrix" values="0 0 0 0 0 0 0 0 0 0 0 0 0 0 0 0 0 0 127 0" result="hardAlpha"/>
<feOffset dx="2.31818" dy="0.579545"/>
<feGaussianBlur stdDeviation="0.386364"/>
<feComposite in2="hardAlpha" operator="arithmetic" k2="-1" k3="1"/>
<feColorMatrix type="matrix" values="0 0 0 0 1 0 0 0 0 1 0 0 0 0 1 0 0 0 0.7 0"/>
<feBlend mode="normal" in2="shape" result="effect2_innerShadow_389_237"/>
<feColorMatrix in="SourceAlpha" type="matrix" values="0 0 0 0 0 0 0 0 0 0 0 0 0 0 0 0 0 0 127 0" result="hardAlpha"/>
<feOffset dx="0.772727"/>
<feGaussianBlur stdDeviation="0.386364"/>
<feComposite in2="hardAlpha" operator="arithmetic" k2="-1" k3="1"/>
<feColorMatrix type="matrix" values="0 0 0 0 0.829327 0 0 0 0 0.829327 0 0 0 0 0.829327 0 0 0 0.6 0"/>
<feBlend mode="normal" in2="effect2_innerShadow_389_237" result="effect3_innerShadow_389_237"/>
<feColorMatrix in="SourceAlpha" type="matrix" values="0 0 0 0 0 0 0 0 0 0 0 0 0 0 0 0 0 0 127 0" result="hardAlpha"/>
<feOffset dx="-0.772727" dy="-0.772727"/>
<feGaussianBlur stdDeviation="0.386364"/>
<feComposite in2="hardAlpha" operator="arithmetic" k2="-1" k3="1"/>
<feColorMatrix type="matrix" values="0 0 0 0 0.420673 0 0 0 0 0.412583 0 0 0 0 0.412583 0 0 0 0.4 0"/>
<feBlend mode="normal" in2="effect3_innerShadow_389_237" result="effect4_innerShadow_389_237"/>
<feColorMatrix in="SourceAlpha" type="matrix" values="0 0 0 0 0 0 0 0 0 0 0 0 0 0 0 0 0 0 127 0" result="hardAlpha"/>
<feOffset dx="-0.772727" dy="-0.772727"/>
<feGaussianBlur stdDeviation="0.772727"/>
<feComposite in2="hardAlpha" operator="arithmetic" k2="-1" k3="1"/>
<feColorMatrix type="matrix" values="0 0 0 0 0 0 0 0 0 0 0 0 0 0 0 0 0 0 0.25 0"/>
<feBlend mode="normal" in2="effect4_innerShadow_389_237" result="effect5_innerShadow_389_237"/>
<feColorMatrix in="SourceAlpha" type="matrix" values="0 0 0 0 0 0 0 0 0 0 0 0 0 0 0 0 0 0 127 0" result="hardAlpha"/>
<feOffset dx="-0.0772727" dy="0.772727"/>
<feGaussianBlur stdDeviation="0.386364"/>
<feComposite in2="hardAlpha" operator="arithmetic" k2="-1" k3="1"/>
<feColorMatrix type="matrix" values="0 0 0 0 0.884615 0 0 0 0 0.878236 0 0 0 0 0.878236 0 0 0 1 0"/>
<feBlend mode="normal" in2="effect5_innerShadow_389_237" result="effect6_innerShadow_389_237"/>
<feColorMatrix in="SourceAlpha" type="matrix" values="0 0 0 0 0 0 0 0 0 0 0 0 0 0 0 0 0 0 127 0" result="hardAlpha"/>
<feOffset dy="-3.86364"/>
<feGaussianBlur stdDeviation="0.386364"/>
<feComposite in2="hardAlpha" operator="arithmetic" k2="-1" k3="1"/>
<feColorMatrix type="matrix" values="0 0 0 0 1 0 0 0 0 1 0 0 0 0 1 0 0 0 0.25 0"/>
<feBlend mode="normal" in2="effect6_innerShadow_389_237" result="effect7_innerShadow_389_237"/>
</filter>
</defs>
</svg>
