<svg width="241" height="64" viewBox="0 0 241 64" fill="none" xmlns="http://www.w3.org/2000/svg">
<g filter="url(#filter0_diiiiii_400_168)">
<rect y="2" width="216" height="44" rx="17" fill="#F3F3F3"/>
</g>
<path d="M43.5913 30.1561C41.8849 30.131 40.3166 29.2528 40.2037 26.9316H41.4458C41.4834 28.4121 42.4495 29.0646 43.6289 29.1273C45.1596 29.2151 45.8748 28.4874 45.8748 27.6468C45.8748 26.6305 44.7456 26.3796 43.5662 26.0283C42.2613 25.6393 40.8812 25.1124 40.8812 23.268C40.8812 21.8502 42.0355 20.9343 43.93 20.9343C45.9626 20.9343 47.1796 22.0259 47.3176 23.7573H46.0755C45.9877 22.5654 45.1345 21.9631 43.93 21.9631C42.6879 21.9631 42.0857 22.5528 42.0857 23.2931C42.0857 24.347 43.0518 24.6481 44.1308 24.9493C45.5109 25.3257 47.0793 25.7021 47.0793 27.6719C47.0793 29.0395 45.9124 30.1938 43.5913 30.1561ZM49.4665 29.9805V21.1351H55.3885V22.1639H50.6082V25.0496H55.1375V26.0659H50.6082V28.9516H55.3885V29.9805H49.4665ZM57.5899 29.9805V21.1351H63.512V22.1639H58.7317V25.0496H63.261V26.0659H58.7317V28.9516H63.512V29.9805H57.5899ZM72.6672 30.1561C70.183 30.1561 68.3512 28.3243 68.3512 25.5515C68.3512 22.7912 70.183 20.9343 72.6672 20.9343C75.1515 20.9343 76.9833 22.7536 76.9833 25.5515C76.9833 28.3745 75.1515 30.1561 72.6672 30.1561ZM72.6672 29.1273C74.4865 29.1273 75.7913 27.7597 75.7913 25.5515C75.7913 23.3684 74.4865 21.9631 72.6672 21.9631C70.8479 21.9631 69.5556 23.3935 69.5556 25.5515C69.5556 27.7221 70.8479 29.1273 72.6672 29.1273ZM80.8224 29.9805V22.1639H78.1625V21.1351H84.762V22.1639H81.9641V29.9805H80.8224ZM86.3223 29.9805V21.1351H87.464V25.0496H91.8428V21.1351H92.972V29.9805H91.8428V26.0659H87.464V29.9805H86.3223ZM95.5608 29.9805V21.1351H101.483V22.1639H96.7025V25.0496H101.232V26.0659H96.7025V28.9516H101.483V29.9805H95.5608ZM103.684 29.9805V21.1351H107.21C109.192 21.1351 110.209 22.1263 110.209 23.5817C110.209 24.8112 109.343 25.564 108.314 25.7899C109.481 25.7899 109.995 26.4799 109.995 27.3582V29.9805H108.853V27.4335C108.853 26.5176 108.327 26.3294 107.436 26.3294H104.826V29.9805H103.684ZM104.826 25.3131H107.248C108.226 25.3131 108.966 24.7736 108.966 23.6444C108.966 22.7285 108.239 22.1639 107.21 22.1639H104.826V25.3131ZM115.496 29.9805V21.1351H119.046C120.866 21.1351 121.857 22.327 121.857 23.7824C121.857 25.1876 121.004 26.4172 119.046 26.4172H116.625V29.9805H115.496ZM116.625 25.4135H119.097C120.151 25.4135 120.615 24.6607 120.615 23.7824C120.615 22.8665 119.987 22.1639 119.097 22.1639H116.625V25.4135ZM123.987 29.9805V21.1351H127.512C129.495 21.1351 130.511 22.1263 130.511 23.5817C130.511 24.8112 129.645 25.564 128.617 25.7899C129.783 25.7899 130.298 26.4799 130.298 27.3582V29.9805H129.156V27.4335C129.156 26.5176 128.629 26.3294 127.738 26.3294H125.129V29.9805H123.987ZM125.129 25.3131H127.55C128.529 25.3131 129.269 24.7736 129.269 23.6444C129.269 22.7285 128.541 22.1639 127.512 22.1639H125.129V25.3131ZM136.724 30.1561C134.24 30.1561 132.408 28.3243 132.408 25.5515C132.408 22.7912 134.24 20.9343 136.724 20.9343C139.208 20.9343 141.04 22.7536 141.04 25.5515C141.04 28.3745 139.208 30.1561 136.724 30.1561ZM136.724 29.1273C138.543 29.1273 139.848 27.7597 139.848 25.5515C139.848 23.3684 138.543 21.9631 136.724 21.9631C134.905 21.9631 133.612 23.3935 133.612 25.5515C133.612 27.7221 134.905 29.1273 136.724 29.1273ZM145.23 30.1561C143.511 30.1561 142.746 29.0897 142.746 27.2829H143.913C143.913 28.3996 144.314 29.1273 145.255 29.1273C146.385 29.1273 146.636 28.3996 146.636 27.6468V21.1351H147.777V27.6468C147.777 29.0771 147.112 30.1561 145.23 30.1561ZM150.281 29.9805V21.1351H156.203V22.1639H151.423V25.0496H155.952V26.0659H151.423V28.9516H156.203V29.9805H150.281ZM162.181 30.0934C159.684 30.0934 158.028 28.0985 158.028 25.4888C158.028 22.9041 159.647 20.8716 162.181 20.8716C164.239 20.8716 165.669 22.1388 166.045 24.2717L164.816 24.2843C164.49 22.8163 163.574 21.9004 162.181 21.9004C160.349 21.9004 159.22 23.4437 159.22 25.4888C159.22 27.5213 160.349 29.0646 162.181 29.0646C163.574 29.0646 164.502 28.1612 164.941 26.7434L166.171 26.756C165.669 28.7634 164.239 30.0934 162.181 30.0934ZM169.911 29.9805V22.1639H167.251V21.1351H173.851V22.1639H171.053V29.9805H169.911ZM178.284 30.1561C176.578 30.131 175.01 29.2528 174.897 26.9316H176.139C176.176 28.4121 177.142 29.0646 178.322 29.1273C179.853 29.2151 180.568 28.4874 180.568 27.6468C180.568 26.6305 179.439 26.3796 178.259 26.0283C176.954 25.6393 175.574 25.1124 175.574 23.268C175.574 21.8502 176.728 20.9343 178.623 20.9343C180.656 20.9343 181.873 22.0259 182.011 23.7573H180.768C180.681 22.5654 179.827 21.9631 178.623 21.9631C177.381 21.9631 176.779 22.5528 176.779 23.2931C176.779 24.347 177.745 24.6481 178.824 24.9493C180.204 25.3257 181.772 25.7021 181.772 27.6719C181.772 29.0395 180.605 30.1938 178.284 30.1561Z" fill="#757575"/>
<path d="M18.1989 24.2503C18.0092 24.44 18.0092 24.7475 18.1989 24.9372L21.2901 28.0285C21.4798 28.2182 21.7874 28.2182 21.9771 28.0285C22.1668 27.8388 22.1668 27.5313 21.9771 27.3416L19.2293 24.5938L21.9771 21.8459C22.1668 21.6562 22.1668 21.3487 21.9771 21.159C21.7874 20.9693 21.4798 20.9693 21.2901 21.159L18.1989 24.2503ZM26.1738 24.5938L26.1738 24.108L18.5423 24.108L18.5423 24.5938L18.5423 25.0795L26.1738 25.0795L26.1738 24.5938Z" fill="#757575"/>
<defs>
<filter id="filter0_diiiiii_400_168" x="-1" y="0" width="242" height="64" filterUnits="userSpaceOnUse" color-interpolation-filters="sRGB">
<feFlood flood-opacity="0" result="BackgroundImageFix"/>
<feColorMatrix in="SourceAlpha" type="matrix" values="0 0 0 0 0 0 0 0 0 0 0 0 0 0 0 0 0 0 127 0" result="hardAlpha"/>
<feOffset dx="15" dy="8"/>
<feGaussianBlur stdDeviation="5"/>
<feComposite in2="hardAlpha" operator="out"/>
<feColorMatrix type="matrix" values="0 0 0 0 0.0528846 0 0 0 0 0.0526304 0 0 0 0 0.0526304 0 0 0 0.4 0"/>
<feBlend mode="normal" in2="BackgroundImageFix" result="effect1_dropShadow_400_168"/>
<feBlend mode="normal" in="SourceGraphic" in2="effect1_dropShadow_400_168" result="shape"/>
<feColorMatrix in="SourceAlpha" type="matrix" values="0 0 0 0 0 0 0 0 0 0 0 0 0 0 0 0 0 0 127 0" result="hardAlpha"/>
<feOffset dx="3" dy="0.75"/>
<feGaussianBlur stdDeviation="0.5"/>
<feComposite in2="hardAlpha" operator="arithmetic" k2="-1" k3="1"/>
<feColorMatrix type="matrix" values="0 0 0 0 1 0 0 0 0 1 0 0 0 0 1 0 0 0 0.7 0"/>
<feBlend mode="normal" in2="shape" result="effect2_innerShadow_400_168"/>
<feColorMatrix in="SourceAlpha" type="matrix" values="0 0 0 0 0 0 0 0 0 0 0 0 0 0 0 0 0 0 127 0" result="hardAlpha"/>
<feOffset dx="1"/>
<feGaussianBlur stdDeviation="0.5"/>
<feComposite in2="hardAlpha" operator="arithmetic" k2="-1" k3="1"/>
<feColorMatrix type="matrix" values="0 0 0 0 0.829327 0 0 0 0 0.829327 0 0 0 0 0.829327 0 0 0 0.6 0"/>
<feBlend mode="normal" in2="effect2_innerShadow_400_168" result="effect3_innerShadow_400_168"/>
<feColorMatrix in="SourceAlpha" type="matrix" values="0 0 0 0 0 0 0 0 0 0 0 0 0 0 0 0 0 0 127 0" result="hardAlpha"/>
<feOffset dx="-1" dy="-1"/>
<feGaussianBlur stdDeviation="0.5"/>
<feComposite in2="hardAlpha" operator="arithmetic" k2="-1" k3="1"/>
<feColorMatrix type="matrix" values="0 0 0 0 0.420673 0 0 0 0 0.412583 0 0 0 0 0.412583 0 0 0 0.4 0"/>
<feBlend mode="normal" in2="effect3_innerShadow_400_168" result="effect4_innerShadow_400_168"/>
<feColorMatrix in="SourceAlpha" type="matrix" values="0 0 0 0 0 0 0 0 0 0 0 0 0 0 0 0 0 0 127 0" result="hardAlpha"/>
<feOffset dx="-1" dy="-1"/>
<feGaussianBlur stdDeviation="1"/>
<feComposite in2="hardAlpha" operator="arithmetic" k2="-1" k3="1"/>
<feColorMatrix type="matrix" values="0 0 0 0 0 0 0 0 0 0 0 0 0 0 0 0 0 0 0.25 0"/>
<feBlend mode="normal" in2="effect4_innerShadow_400_168" result="effect5_innerShadow_400_168"/>
<feColorMatrix in="SourceAlpha" type="matrix" values="0 0 0 0 0 0 0 0 0 0 0 0 0 0 0 0 0 0 127 0" result="hardAlpha"/>
<feOffset dx="-0.1" dy="1"/>
<feGaussianBlur stdDeviation="0.5"/>
<feComposite in2="hardAlpha" operator="arithmetic" k2="-1" k3="1"/>
<feColorMatrix type="matrix" values="0 0 0 0 0.884615 0 0 0 0 0.878236 0 0 0 0 0.878236 0 0 0 1 0"/>
<feBlend mode="normal" in2="effect5_innerShadow_400_168" result="effect6_innerShadow_400_168"/>
<feColorMatrix in="SourceAlpha" type="matrix" values="0 0 0 0 0 0 0 0 0 0 0 0 0 0 0 0 0 0 127 0" result="hardAlpha"/>
<feOffset dy="-5"/>
<feGaussianBlur stdDeviation="0.5"/>
<feComposite in2="hardAlpha" operator="arithmetic" k2="-1" k3="1"/>
<feColorMatrix type="matrix" values="0 0 0 0 1 0 0 0 0 1 0 0 0 0 1 0 0 0 0.25 0"/>
<feBlend mode="normal" in2="effect6_innerShadow_400_168" result="effect7_innerShadow_400_168"/>
</filter>
</defs>
</svg>
